<svg width="642" height="150" viewBox="0 0 642 150" fill="none" xmlns="http://www.w3.org/2000/svg">
<path d="M175.3 111V41H207.1C214.7 41 221.4 42.4667 227.2 45.4C233 48.2667 237.533 52.3 240.8 57.5C244.067 62.7 245.7 68.8667 245.7 76C245.7 83.0667 244.067 89.2333 240.8 94.5C237.533 99.7 233 103.767 227.2 106.7C221.4 109.567 214.7 111 207.1 111H175.3ZM191.5 97.7H206.3C210.967 97.7 215 96.8333 218.4 95.1C221.867 93.3 224.533 90.7667 226.4 87.5C228.333 84.2333 229.3 80.4 229.3 76C229.3 71.5333 228.333 67.7 226.4 64.5C224.533 61.2333 221.867 58.7333 218.4 57C215 55.2 210.967 54.3 206.3 54.3H191.5V97.7ZM289.817 111V100.5L288.817 98.2V79.4C288.817 76.0667 287.784 73.4667 285.717 71.6C283.717 69.7333 280.617 68.8 276.417 68.8C273.551 68.8 270.717 69.2667 267.917 70.2C265.184 71.0667 262.851 72.2667 260.917 73.8L255.317 62.9C258.251 60.8333 261.784 59.2333 265.917 58.1C270.051 56.9667 274.251 56.4 278.517 56.4C286.717 56.4 293.084 58.3333 297.617 62.2C302.151 66.0667 304.417 72.1 304.417 80.3V111H289.817ZM273.417 111.8C269.217 111.8 265.617 111.1 262.617 109.7C259.617 108.233 257.317 106.267 255.717 103.8C254.117 101.333 253.317 98.5667 253.317 95.5C253.317 92.3 254.084 89.5 255.617 87.1C257.217 84.7 259.717 82.8333 263.117 81.5C266.517 80.1 270.951 79.4 276.417 79.4H290.717V88.5H278.117C274.451 88.5 271.917 89.1 270.517 90.3C269.184 91.5 268.517 93 268.517 94.8C268.517 96.8 269.284 98.4 270.817 99.6C272.417 100.733 274.584 101.3 277.317 101.3C279.917 101.3 282.251 100.7 284.317 99.5C286.384 98.2333 287.884 96.4 288.817 94L291.217 101.2C290.084 104.667 288.017 107.3 285.017 109.1C282.017 110.9 278.151 111.8 273.417 111.8ZM351.236 56.4C355.503 56.4 359.303 57.2667 362.636 59C366.036 60.6667 368.703 63.2667 370.636 66.8C372.569 70.2667 373.536 74.7333 373.536 80.2V111H357.936V82.6C357.936 78.2667 356.969 75.0667 355.036 73C353.169 70.9333 350.503 69.9 347.036 69.9C344.569 69.9 342.336 70.4333 340.336 71.5C338.403 72.5 336.869 74.0667 335.736 76.2C334.669 78.3333 334.136 81.0667 334.136 84.4V111H318.536V57.2H333.436V72.1L330.636 67.6C332.569 64 335.336 61.2333 338.936 59.3C342.536 57.3667 346.636 56.4 351.236 56.4ZM403.277 111V54.2H380.877V41H441.877V54.2H419.477V111H403.277ZM471.021 111.8C466.554 111.8 462.554 110.933 459.021 109.2C455.554 107.467 452.854 104.833 450.921 101.3C448.988 97.7 448.021 93.1333 448.021 87.6V57.2H463.621V85.3C463.621 89.7667 464.554 93.0667 466.421 95.2C468.354 97.2667 471.054 98.3 474.521 98.3C476.921 98.3 479.054 97.8 480.921 96.8C482.788 95.7333 484.254 94.1333 485.321 92C486.388 89.8 486.921 87.0667 486.921 83.8V57.2H502.521V111H487.721V96.2L490.421 100.5C488.621 104.233 485.954 107.067 482.421 109C478.954 110.867 475.154 111.8 471.021 111.8ZM548.773 111.8C544.04 111.8 539.973 110.8 536.573 108.8C533.173 106.8 530.573 103.767 528.773 99.7C526.973 95.5667 526.073 90.3667 526.073 84.1C526.073 77.7667 527.007 72.5667 528.873 68.5C530.807 64.4333 533.473 61.4 536.873 59.4C540.273 57.4 544.24 56.4 548.773 56.4C553.84 56.4 558.373 57.5333 562.373 59.8C566.44 62.0667 569.64 65.2667 571.973 69.4C574.373 73.5333 575.573 78.4333 575.573 84.1C575.573 89.7 574.373 94.5667 571.973 98.7C569.64 102.833 566.44 106.067 562.373 108.4C558.373 110.667 553.84 111.8 548.773 111.8ZM516.973 111V36.8H532.573V68.1L531.573 84L531.873 100V111H516.973ZM546.073 99C548.673 99 550.973 98.4 552.973 97.2C555.04 96 556.673 94.3 557.873 92.1C559.14 89.8333 559.773 87.1667 559.773 84.1C559.773 80.9667 559.14 78.3 557.873 76.1C556.673 73.9 555.04 72.2 552.973 71C550.973 69.8 548.673 69.2 546.073 69.2C543.473 69.2 541.14 69.8 539.073 71C537.007 72.2 535.373 73.9 534.173 76.1C532.973 78.3 532.373 80.9667 532.373 84.1C532.373 87.1667 532.973 89.8333 534.173 92.1C535.373 94.3 537.007 96 539.073 97.2C541.14 98.4 543.473 99 546.073 99ZM612.716 111.8C606.583 111.8 601.183 110.6 596.516 108.2C591.916 105.8 588.35 102.533 585.816 98.4C583.283 94.2 582.016 89.4333 582.016 84.1C582.016 78.7 583.25 73.9333 585.716 69.8C588.25 65.6 591.683 62.3333 596.016 60C600.35 57.6 605.25 56.4 610.716 56.4C615.983 56.4 620.716 57.5333 624.916 59.8C629.183 62 632.55 65.2 635.016 69.4C637.483 73.5333 638.716 78.5 638.716 84.3C638.716 84.9 638.683 85.6 638.616 86.4C638.55 87.1333 638.483 87.8333 638.416 88.5H594.716V79.4H630.216L624.216 82.1C624.216 79.3 623.65 76.8667 622.516 74.8C621.383 72.7333 619.816 71.1333 617.816 70C615.816 68.8 613.483 68.2 610.816 68.2C608.15 68.2 605.783 68.8 603.716 70C601.716 71.1333 600.15 72.7667 599.016 74.9C597.883 76.9667 597.316 79.4333 597.316 82.3V84.7C597.316 87.6333 597.95 90.2333 599.216 92.5C600.55 94.7 602.383 96.4 604.716 97.6C607.116 98.7333 609.916 99.3 613.116 99.3C615.983 99.3 618.483 98.8667 620.616 98C622.816 97.1333 624.816 95.8333 626.616 94.1L634.916 103.1C632.45 105.9 629.35 108.067 625.616 109.6C621.883 111.067 617.583 111.8 612.716 111.8Z" fill="black"/>
<rect width="150" height="150" rx="75" fill="#00AAC1"/>
<path d="M94.5 75.75L66.375 91.988V59.512L94.5 75.75Z" fill="white"/>
</svg>
